<?xml version="1.0" standalone="no"?>
<!DOCTYPE svg PUBLIC "-//W3C//DTD SVG 20010904//EN"
 "http://www.w3.org/TR/2001/REC-SVG-20010904/DTD/svg10.dtd">
<svg version="1.0" xmlns="http://www.w3.org/2000/svg"
 width="700.000000pt" height="700.000000pt" viewBox="0 0 700.000000 700.000000"
 preserveAspectRatio="xMidYMid meet">
<metadata>
Created by potrace 1.14, written by Peter Selinger 2001-2017
</metadata>
<g transform="translate(0.000000,700.000000) scale(0.100000,-0.100000)"
fill="#000000" stroke="none">
<path d="M3338 6855 c-2 -2 -49 -6 -105 -9 -55 -4 -112 -9 -125 -11 -12 -2
-45 -6 -73 -10 -189 -23 -602 -130 -750 -195 -11 -5 -65 -28 -120 -51 -433
-186 -856 -489 -1160 -834 -33 -38 -64 -73 -70 -79 -5 -6 -35 -42 -65 -81
-238 -301 -416 -626 -544 -993 -45 -131 -119 -415 -131 -502 -3 -25 -8 -52
-10 -60 -7 -26 -19 -133 -32 -280 -13 -158 -7 -523 12 -631 2 -13 6 -42 9 -64
10 -92 30 -197 56 -310 246 -1053 973 -1918 1965 -2337 280 -119 653 -217 915
-242 30 -3 82 -8 115 -12 89 -10 408 -11 505 -3 156 14 244 24 290 33 8 1 38
6 65 10 126 20 392 90 548 145 170 60 410 173 572 269 122 72 357 236 411 286
7 6 31 27 55 46 89 72 253 234 355 350 302 341 549 783 680 1216 37 123 89
335 99 404 3 25 8 52 10 60 4 15 15 97 20 155 2 17 6 55 9 85 4 30 8 108 11
173 l4 117 -260 0 c-200 0 -259 -3 -260 -12 0 -7 -2 -58 -4 -113 -3 -90 -7
-127 -21 -245 -4 -31 -23 -140 -39 -225 -11 -57 -56 -221 -85 -307 -116 -344
-305 -678 -537 -946 -146 -170 -374 -376 -529 -478 -32 -21 -68 -47 -78 -56
-11 -10 -24 -18 -29 -18 -5 0 -32 -15 -60 -34 -180 -117 -586 -284 -782 -322
-53 -10 -66 -13 -73 -17 -4 -3 -25 -8 -47 -11 -22 -4 -65 -11 -95 -16 -152
-25 -266 -34 -455 -34 -146 -1 -302 7 -365 18 -14 2 -59 10 -100 16 -172 27
-426 98 -605 170 -192 77 -504 252 -633 355 -440 351 -715 702 -909 1156 -73
169 -153 426 -177 566 -24 137 -37 232 -43 308 -14 170 -7 489 13 615 75 483
219 856 475 1237 142 209 359 443 574 615 74 59 259 186 335 230 359 206 790
343 1180 375 158 13 496 7 611 -12 13 -2 58 -9 99 -15 385 -60 790 -221 1131
-451 94 -63 260 -193 325 -255 23 -21 53 -50 67 -62 l25 -24 183 183 182 182
-79 76 c-44 42 -102 94 -129 116 -28 22 -52 42 -55 45 -19 20 -155 120 -242
178 -399 267 -824 436 -1308 521 -107 19 -154 25 -285 37 -56 5 -433 13 -437
9z"/>
<path d="M3230 5984 c-504 -56 -935 -241 -1349 -578 -64 -52 -282 -279 -342
-356 -186 -239 -331 -510 -419 -786 -44 -137 -72 -264 -105 -475 -13 -80 -13
-457 1 -563 88 -706 429 -1305 982 -1722 156 -119 302 -204 302 -177 0 5 38
78 85 161 47 84 85 156 85 162 0 6 -10 14 -23 19 -21 8 -206 128 -217 141 -3
3 -30 25 -60 48 -78 62 -212 194 -290 287 -258 308 -417 670 -475 1080 -15
105 -22 380 -11 455 3 19 8 62 11 95 4 33 11 83 16 110 6 28 13 61 15 75 8 41
34 130 60 210 192 572 622 1039 1174 1272 214 91 408 140 640 163 65 7 316 7
375 0 171 -19 223 -29 365 -66 686 -181 1233 -702 1460 -1389 35 -105 77 -293
85 -380 4 -36 9 -76 11 -90 5 -31 5 -311 0 -361 -5 -45 -16 -134 -22 -174 -9
-57 -53 -230 -77 -305 -92 -278 -250 -550 -442 -759 -56 -61 -174 -175 -210
-202 -16 -13 -32 -26 -35 -29 -10 -11 -147 -109 -202 -144 -123 -78 -339 -177
-480 -220 l-56 -17 20 -67 c11 -37 23 -80 28 -97 34 -128 53 -191 60 -199 12
-12 195 51 342 118 31 14 59 26 61 26 10 0 228 127 297 173 203 136 415 332
571 527 91 115 205 294 276 433 35 70 122 278 128 306 2 9 13 45 25 81 43 133
79 313 99 500 9 79 7 419 -3 505 -51 452 -236 903 -524 1274 -71 92 -301 328
-367 376 -22 17 -49 38 -60 48 -39 36 -271 186 -365 236 -170 90 -456 198
-603 227 -316 62 -576 77 -837 48z"/>
<path d="M3506 5283 c-3 -4 -6 -66 -6 -140 l0 -133 43 -1 c152 -5 352 -44 477
-92 19 -8 50 -20 69 -27 19 -7 68 -31 109 -52 392 -206 682 -584 776 -1013 25
-117 27 -135 31 -290 8 -380 -109 -716 -350 -1005 -241 -289 -585 -477 -961
-527 -108 -14 -342 -9 -454 11 -600 104 -1090 575 -1216 1169 -24 115 -25 124
-28 292 -5 248 37 451 137 665 55 116 174 297 237 360 3 3 18 19 34 37 l28 31
-98 98 -97 97 -54 -57 c-157 -171 -288 -390 -366 -611 -329 -936 171 -1967
1108 -2284 66 -22 136 -43 155 -46 19 -3 51 -10 70 -15 171 -45 501 -43 726 4
516 108 979 467 1218 944 236 471 253 1014 48 1502 -20 47 -49 107 -64 133
-15 26 -28 50 -28 53 0 10 -109 171 -157 230 -257 322 -637 553 -1038 633
-126 25 -338 45 -349 34z"/>
<path d="M3385 4708 c-195 -18 -394 -90 -569 -205 -95 -63 -260 -229 -324
-328 -29 -43 -52 -84 -52 -90 0 -5 40 -32 89 -58 84 -45 90 -46 96 -28 3 11
27 49 52 83 122 166 278 288 453 355 146 56 244 73 400 69 362 -11 677 -204
858 -527 31 -56 95 -234 107 -299 14 -77 13 -276 -1 -350 -28 -146 -88 -295
-165 -407 -48 -69 -194 -213 -264 -258 -267 -174 -571 -218 -874 -124 -79 24
-206 87 -275 136 -71 51 -205 187 -250 255 -46 70 -100 177 -118 236 -15 49
-6 48 -136 9 -73 -21 -73 -21 -66 -52 17 -80 106 -249 188 -358 276 -365 748
-547 1193 -459 171 34 339 105 473 200 79 56 223 197 277 272 106 146 183 325
219 505 19 97 21 291 4 398 -27 169 -99 351 -197 501 -60 90 -227 257 -318
318 -117 77 -238 134 -357 166 -149 40 -296 54 -443 40z"/>
<path d="M3487 4144 c-1 -1 -27 -4 -57 -7 -55 -6 -60 -7 -115 -22 -92 -25
-220 -106 -296 -188 -46 -50 -98 -140 -124 -214 -145 -417 163 -853 604 -854
189 -1 385 92 499 236 l32 40 -27 22 c-14 12 -37 27 -49 34 -21 11 -26 9 -45
-15 -57 -73 -143 -134 -236 -168 -85 -32 -263 -32 -348 0 -207 77 -345 271
-345 487 0 293 232 525 527 526 217 1 425 -153 488 -360 18 -61 19 -63 48 -57
16 3 37 6 46 6 41 1 45 14 21 86 -63 198 -231 363 -425 419 -44 13 -191 35
-198 29z"/>
<path d="M3423 3848 c-39 -10 -39 -11 -13 -82 l21 -55 52 3 c203 12 309 -221
167 -365 -92 -92 -229 -87 -314 13 -49 57 -63 127 -41 210 6 25 3 29 -54 57
-33 17 -62 27 -64 23 -20 -31 -35 -120 -31 -177 18 -282 352 -430 574 -254
257 203 122 619 -205 633 -33 2 -75 -1 -92 -6z"/>
<path d="M3450 3548 c-26 -29 -26 -72 2 -98 66 -61 159 32 98 98 -27 29 -73
29 -100 0z"/>
</g>
</svg>
